<mxfile host="www.draw.io" modified="2019-10-23T01:57:14.927Z" agent="Mozilla/5.0 (Windows NT 10.0; Win64; x64) AppleWebKit/537.36 (KHTML, like Gecko) Chrome/77.0.3865.120 Safari/537.36" etag="6XeQBHOld20WegpIX5HI" version="12.1.3" type="github" pages="1">
  <diagram id="J0291UpoqYQ95CO8GUpy" name="Page-1">
    <mxGraphModel dx="794" dy="446" grid="1" gridSize="10" guides="1" tooltips="1" connect="1" arrows="1" fold="1" page="1" pageScale="1" pageWidth="850" pageHeight="1100" math="0" shadow="0">
      <root>
        <mxCell id="0"/>
        <mxCell id="1" parent="0"/>
        <mxCell id="UKmyg2PwLch9gKuRHwUI-1" value="«interface»&lt;br&gt;&lt;b&gt;DriversLicense&lt;/b&gt;" style="swimlane;fontStyle=1;align=center;verticalAlign=top;childLayout=stackLayout;horizontal=1;startSize=40;horizontalStack=0;resizeParent=1;resizeParentMax=0;resizeLast=0;collapsible=1;marginBottom=0;html=1;collapsible=1;swimlaneLine=1;" vertex="1" parent="1">
          <mxGeometry x="360" y="80" width="160" height="66" as="geometry"/>
        </mxCell>
        <mxCell id="UKmyg2PwLch9gKuRHwUI-2" value="- DMV()" style="text;strokeColor=none;fillColor=none;align=left;verticalAlign=top;spacingLeft=4;spacingRight=4;overflow=hidden;rotatable=0;points=[[0,0.5],[1,0.5]];portConstraint=eastwest;" vertex="1" parent="UKmyg2PwLch9gKuRHwUI-1">
          <mxGeometry y="40" width="160" height="26" as="geometry"/>
        </mxCell>
        <mxCell id="UKmyg2PwLch9gKuRHwUI-3" value="Personal ID Info" style="swimlane;fontStyle=1;align=center;verticalAlign=top;childLayout=stackLayout;horizontal=1;startSize=26;horizontalStack=0;resizeParent=1;resizeParentMax=0;resizeLast=0;collapsible=1;marginBottom=0;" vertex="1" parent="1">
          <mxGeometry x="360" y="370" width="160" height="242" as="geometry"/>
        </mxCell>
        <mxCell id="UKmyg2PwLch9gKuRHwUI-4" value="- field: type" style="text;strokeColor=none;fillColor=none;align=left;verticalAlign=top;spacingLeft=4;spacingRight=4;overflow=hidden;rotatable=0;points=[[0,0.5],[1,0.5]];portConstraint=eastwest;" vertex="1" parent="UKmyg2PwLch9gKuRHwUI-3">
          <mxGeometry y="26" width="160" height="26" as="geometry"/>
        </mxCell>
        <mxCell id="UKmyg2PwLch9gKuRHwUI-5" value="" style="line;strokeWidth=1;fillColor=none;align=left;verticalAlign=middle;spacingTop=-1;spacingLeft=3;spacingRight=3;rotatable=0;labelPosition=right;points=[];portConstraint=eastwest;" vertex="1" parent="UKmyg2PwLch9gKuRHwUI-3">
          <mxGeometry y="52" width="160" height="8" as="geometry"/>
        </mxCell>
        <mxCell id="UKmyg2PwLch9gKuRHwUI-6" value="+ getName() : string" style="text;strokeColor=none;fillColor=none;align=left;verticalAlign=top;spacingLeft=4;spacingRight=4;overflow=hidden;rotatable=0;points=[[0,0.5],[1,0.5]];portConstraint=eastwest;" vertex="1" parent="UKmyg2PwLch9gKuRHwUI-3">
          <mxGeometry y="60" width="160" height="26" as="geometry"/>
        </mxCell>
        <mxCell id="UKmyg2PwLch9gKuRHwUI-7" value="+ getAddress() : string" style="text;strokeColor=none;fillColor=none;align=left;verticalAlign=top;spacingLeft=4;spacingRight=4;overflow=hidden;rotatable=0;points=[[0,0.5],[1,0.5]];portConstraint=eastwest;" vertex="1" parent="UKmyg2PwLch9gKuRHwUI-3">
          <mxGeometry y="86" width="160" height="26" as="geometry"/>
        </mxCell>
        <mxCell id="UKmyg2PwLch9gKuRHwUI-8" value="+ getDOB() : date" style="text;strokeColor=none;fillColor=none;align=left;verticalAlign=top;spacingLeft=4;spacingRight=4;overflow=hidden;rotatable=0;points=[[0,0.5],[1,0.5]];portConstraint=eastwest;" vertex="1" parent="UKmyg2PwLch9gKuRHwUI-3">
          <mxGeometry y="112" width="160" height="26" as="geometry"/>
        </mxCell>
        <mxCell id="UKmyg2PwLch9gKuRHwUI-20" value="+ getHeight() : int" style="text;strokeColor=none;fillColor=none;align=left;verticalAlign=top;spacingLeft=4;spacingRight=4;overflow=hidden;rotatable=0;points=[[0,0.5],[1,0.5]];portConstraint=eastwest;" vertex="1" parent="UKmyg2PwLch9gKuRHwUI-3">
          <mxGeometry y="138" width="160" height="26" as="geometry"/>
        </mxCell>
        <mxCell id="UKmyg2PwLch9gKuRHwUI-21" value="+ getSex() : char" style="text;strokeColor=none;fillColor=none;align=left;verticalAlign=top;spacingLeft=4;spacingRight=4;overflow=hidden;rotatable=0;points=[[0,0.5],[1,0.5]];portConstraint=eastwest;" vertex="1" parent="UKmyg2PwLch9gKuRHwUI-3">
          <mxGeometry y="164" width="160" height="26" as="geometry"/>
        </mxCell>
        <mxCell id="UKmyg2PwLch9gKuRHwUI-22" value="+ getEyeColor() : char" style="text;strokeColor=none;fillColor=none;align=left;verticalAlign=top;spacingLeft=4;spacingRight=4;overflow=hidden;rotatable=0;points=[[0,0.5],[1,0.5]];portConstraint=eastwest;" vertex="1" parent="UKmyg2PwLch9gKuRHwUI-3">
          <mxGeometry y="190" width="160" height="26" as="geometry"/>
        </mxCell>
        <mxCell id="UKmyg2PwLch9gKuRHwUI-23" value="+ getWeight() : char" style="text;strokeColor=none;fillColor=none;align=left;verticalAlign=top;spacingLeft=4;spacingRight=4;overflow=hidden;rotatable=0;points=[[0,0.5],[1,0.5]];portConstraint=eastwest;" vertex="1" parent="UKmyg2PwLch9gKuRHwUI-3">
          <mxGeometry y="216" width="160" height="26" as="geometry"/>
        </mxCell>
        <mxCell id="UKmyg2PwLch9gKuRHwUI-9" style="rounded=1;orthogonalLoop=1;jettySize=auto;html=1;entryX=0.513;entryY=1.038;entryDx=0;entryDy=0;entryPerimeter=0;orthogonal=1;endArrow=block;endFill=0;endSize=12;dashed=1;" edge="1" parent="1">
          <mxGeometry relative="1" as="geometry">
            <mxPoint x="440" y="146" as="targetPoint"/>
            <mxPoint x="440" y="215" as="sourcePoint"/>
          </mxGeometry>
        </mxCell>
        <mxCell id="UKmyg2PwLch9gKuRHwUI-10" value="AbstractState" style="swimlane;fontStyle=1;align=center;verticalAlign=top;childLayout=stackLayout;horizontal=1;startSize=26;horizontalStack=0;resizeParent=1;resizeParentMax=0;resizeLast=0;collapsible=1;marginBottom=0;" vertex="1" parent="1">
          <mxGeometry x="360" y="210" width="160" height="86" as="geometry"/>
        </mxCell>
        <mxCell id="UKmyg2PwLch9gKuRHwUI-11" value="+ field: type" style="text;strokeColor=none;fillColor=none;align=left;verticalAlign=top;spacingLeft=4;spacingRight=4;overflow=hidden;rotatable=0;points=[[0,0.5],[1,0.5]];portConstraint=eastwest;" vertex="1" parent="UKmyg2PwLch9gKuRHwUI-10">
          <mxGeometry y="26" width="160" height="26" as="geometry"/>
        </mxCell>
        <mxCell id="UKmyg2PwLch9gKuRHwUI-12" value="" style="line;strokeWidth=1;fillColor=none;align=left;verticalAlign=middle;spacingTop=-1;spacingLeft=3;spacingRight=3;rotatable=0;labelPosition=right;points=[];portConstraint=eastwest;" vertex="1" parent="UKmyg2PwLch9gKuRHwUI-10">
          <mxGeometry y="52" width="160" height="8" as="geometry"/>
        </mxCell>
        <mxCell id="UKmyg2PwLch9gKuRHwUI-13" value="+ format() : layout" style="text;strokeColor=none;fillColor=none;align=left;verticalAlign=top;spacingLeft=4;spacingRight=4;overflow=hidden;rotatable=0;points=[[0,0.5],[1,0.5]];portConstraint=eastwest;" vertex="1" parent="UKmyg2PwLch9gKuRHwUI-10">
          <mxGeometry y="60" width="160" height="26" as="geometry"/>
        </mxCell>
        <mxCell id="UKmyg2PwLch9gKuRHwUI-14" style="rounded=1;orthogonalLoop=1;jettySize=auto;html=1;entryX=0.513;entryY=1.038;entryDx=0;entryDy=0;entryPerimeter=0;orthogonal=1;endArrow=block;endFill=0;endSize=12;dashed=1;" edge="1" parent="1">
          <mxGeometry relative="1" as="geometry">
            <mxPoint x="440" y="300" as="targetPoint"/>
            <mxPoint x="440" y="369" as="sourcePoint"/>
          </mxGeometry>
        </mxCell>
        <mxCell id="UKmyg2PwLch9gKuRHwUI-15" value="DMV Info" style="swimlane;fontStyle=1;align=center;verticalAlign=top;childLayout=stackLayout;horizontal=1;startSize=26;horizontalStack=0;resizeParent=1;resizeParentMax=0;resizeLast=0;collapsible=1;marginBottom=0;" vertex="1" parent="1">
          <mxGeometry x="560" y="370" width="200" height="216" as="geometry"/>
        </mxCell>
        <mxCell id="UKmyg2PwLch9gKuRHwUI-16" value="+ field: type" style="text;strokeColor=none;fillColor=none;align=left;verticalAlign=top;spacingLeft=4;spacingRight=4;overflow=hidden;rotatable=0;points=[[0,0.5],[1,0.5]];portConstraint=eastwest;" vertex="1" parent="UKmyg2PwLch9gKuRHwUI-15">
          <mxGeometry y="26" width="200" height="26" as="geometry"/>
        </mxCell>
        <mxCell id="UKmyg2PwLch9gKuRHwUI-17" value="" style="line;strokeWidth=1;fillColor=none;align=left;verticalAlign=middle;spacingTop=-1;spacingLeft=3;spacingRight=3;rotatable=0;labelPosition=right;points=[];portConstraint=eastwest;" vertex="1" parent="UKmyg2PwLch9gKuRHwUI-15">
          <mxGeometry y="52" width="200" height="8" as="geometry"/>
        </mxCell>
        <mxCell id="UKmyg2PwLch9gKuRHwUI-18" value="+ getDLNo(): int" style="text;strokeColor=none;fillColor=none;align=left;verticalAlign=top;spacingLeft=4;spacingRight=4;overflow=hidden;rotatable=0;points=[[0,0.5],[1,0.5]];portConstraint=eastwest;" vertex="1" parent="UKmyg2PwLch9gKuRHwUI-15">
          <mxGeometry y="60" width="200" height="26" as="geometry"/>
        </mxCell>
        <mxCell id="UKmyg2PwLch9gKuRHwUI-25" value="+ getClass(): char" style="text;strokeColor=none;fillColor=none;align=left;verticalAlign=top;spacingLeft=4;spacingRight=4;overflow=hidden;rotatable=0;points=[[0,0.5],[1,0.5]];portConstraint=eastwest;" vertex="1" parent="UKmyg2PwLch9gKuRHwUI-15">
          <mxGeometry y="86" width="200" height="26" as="geometry"/>
        </mxCell>
        <mxCell id="UKmyg2PwLch9gKuRHwUI-26" value="+ getDLExp(): date" style="text;strokeColor=none;fillColor=none;align=left;verticalAlign=top;spacingLeft=4;spacingRight=4;overflow=hidden;rotatable=0;points=[[0,0.5],[1,0.5]];portConstraint=eastwest;" vertex="1" parent="UKmyg2PwLch9gKuRHwUI-15">
          <mxGeometry y="112" width="200" height="26" as="geometry"/>
        </mxCell>
        <mxCell id="UKmyg2PwLch9gKuRHwUI-27" value="+ getDLExp(): date" style="text;strokeColor=none;fillColor=none;align=left;verticalAlign=top;spacingLeft=4;spacingRight=4;overflow=hidden;rotatable=0;points=[[0,0.5],[1,0.5]];portConstraint=eastwest;" vertex="1" parent="UKmyg2PwLch9gKuRHwUI-15">
          <mxGeometry y="138" width="200" height="26" as="geometry"/>
        </mxCell>
        <mxCell id="UKmyg2PwLch9gKuRHwUI-28" value="+ getRealID(): boolean" style="text;strokeColor=none;fillColor=none;align=left;verticalAlign=top;spacingLeft=4;spacingRight=4;overflow=hidden;rotatable=0;points=[[0,0.5],[1,0.5]];portConstraint=eastwest;" vertex="1" parent="UKmyg2PwLch9gKuRHwUI-15">
          <mxGeometry y="164" width="200" height="26" as="geometry"/>
        </mxCell>
        <mxCell id="UKmyg2PwLch9gKuRHwUI-34" value="+ getISS(): date" style="text;strokeColor=none;fillColor=none;align=left;verticalAlign=top;spacingLeft=4;spacingRight=4;overflow=hidden;rotatable=0;points=[[0,0.5],[1,0.5]];portConstraint=eastwest;" vertex="1" parent="UKmyg2PwLch9gKuRHwUI-15">
          <mxGeometry y="190" width="200" height="26" as="geometry"/>
        </mxCell>
        <mxCell id="UKmyg2PwLch9gKuRHwUI-24" style="rounded=1;orthogonalLoop=1;jettySize=auto;html=1;entryX=0.513;entryY=1.038;entryDx=0;entryDy=0;entryPerimeter=0;orthogonal=1;endArrow=block;endFill=0;endSize=12;dashed=1;exitX=0.5;exitY=0;exitDx=0;exitDy=0;" edge="1" parent="1" source="UKmyg2PwLch9gKuRHwUI-15">
          <mxGeometry relative="1" as="geometry">
            <mxPoint x="500" y="296" as="targetPoint"/>
            <mxPoint x="500" y="365" as="sourcePoint"/>
          </mxGeometry>
        </mxCell>
        <mxCell id="UKmyg2PwLch9gKuRHwUI-29" value="OrganDoner" style="swimlane;fontStyle=1;align=center;verticalAlign=top;childLayout=stackLayout;horizontal=1;startSize=26;horizontalStack=0;resizeParent=1;resizeParentMax=0;resizeLast=0;collapsible=1;marginBottom=0;" vertex="1" parent="1">
          <mxGeometry x="180" y="370" width="160" height="86" as="geometry"/>
        </mxCell>
        <mxCell id="UKmyg2PwLch9gKuRHwUI-30" value="+ field: type" style="text;strokeColor=none;fillColor=none;align=left;verticalAlign=top;spacingLeft=4;spacingRight=4;overflow=hidden;rotatable=0;points=[[0,0.5],[1,0.5]];portConstraint=eastwest;" vertex="1" parent="UKmyg2PwLch9gKuRHwUI-29">
          <mxGeometry y="26" width="160" height="26" as="geometry"/>
        </mxCell>
        <mxCell id="UKmyg2PwLch9gKuRHwUI-31" value="" style="line;strokeWidth=1;fillColor=none;align=left;verticalAlign=middle;spacingTop=-1;spacingLeft=3;spacingRight=3;rotatable=0;labelPosition=right;points=[];portConstraint=eastwest;" vertex="1" parent="UKmyg2PwLch9gKuRHwUI-29">
          <mxGeometry y="52" width="160" height="8" as="geometry"/>
        </mxCell>
        <mxCell id="UKmyg2PwLch9gKuRHwUI-32" value="+ Doner() : boolean" style="text;strokeColor=none;fillColor=none;align=left;verticalAlign=top;spacingLeft=4;spacingRight=4;overflow=hidden;rotatable=0;points=[[0,0.5],[1,0.5]];portConstraint=eastwest;" vertex="1" parent="UKmyg2PwLch9gKuRHwUI-29">
          <mxGeometry y="60" width="160" height="26" as="geometry"/>
        </mxCell>
        <mxCell id="UKmyg2PwLch9gKuRHwUI-33" style="rounded=1;orthogonalLoop=1;jettySize=auto;html=1;entryX=0.3;entryY=1.082;entryDx=0;entryDy=0;entryPerimeter=0;orthogonal=1;endArrow=block;endFill=0;endSize=12;dashed=1;exitX=0.5;exitY=0;exitDx=0;exitDy=0;" edge="1" parent="1" source="UKmyg2PwLch9gKuRHwUI-29" target="UKmyg2PwLch9gKuRHwUI-13">
          <mxGeometry relative="1" as="geometry">
            <mxPoint x="209.5" y="301" as="targetPoint"/>
            <mxPoint x="209.5" y="370" as="sourcePoint"/>
          </mxGeometry>
        </mxCell>
      </root>
    </mxGraphModel>
  </diagram>
</mxfile>
